<svg xmlns:dc="http://purl.org/dc/elements/1.1/" xmlns:cc="http://creativecommons.org/ns#" xmlns:rdf="http://www.w3.org/1999/02/22-rdf-syntax-ns#" xmlns:svg="http://www.w3.org/2000/svg" xmlns="http://www.w3.org/2000/svg" xmlns:sodipodi="http://sodipodi.sourceforge.net/DTD/sodipodi-0.dtd" xmlns:inkscape="http://www.inkscape.org/namespaces/inkscape" version="1.1" id="svg8" inkscape:version="1.0.1 (3bc2e813f5, 2020-09-07)" sodipodi:docname="GenieHeaderTransparent.svg" viewBox="50.44 141.94 53.63 21.75">
  <defs id="defs2"/>
  <sodipodi:namedview id="base" pagecolor="#ffffff" bordercolor="#666666" borderopacity="1.0" inkscape:pageopacity="0.0" inkscape:pageshadow="2" inkscape:zoom="1.979899" inkscape:cx="367.09425" inkscape:cy="716.90176" inkscape:document-units="mm" inkscape:current-layer="layer1" inkscape:document-rotation="0" showgrid="false" inkscape:window-width="3072" inkscape:window-height="1634" inkscape:window-x="3373" inkscape:window-y="-11" inkscape:window-maximized="1"/>
  <metadata id="metadata5">
    <rdf:RDF>
      <cc:Work rdf:about="">
        <dc:format>image/svg+xml</dc:format>
        <dc:type rdf:resource="http://purl.org/dc/dcmitype/StillImage"/>
        <dc:title/>
      </cc:Work>
    </rdf:RDF>
  </metadata>
  <g inkscape:label="Ebene 1" inkscape:groupmode="layer" id="layer1">
    <g id="g2735" transform="matrix(0.44707208,0,0,0.44707208,38.549912,76.251215)" style="stroke-width:2.23678">
      <path id="rect5672-9" style="fill:#ffffff;fill-opacity:1;stroke:none;stroke-width:67.6316;stroke-linecap:round;stroke-linejoin:round;stroke-miterlimit:4;stroke-dasharray:none;stroke-dashoffset:24.5872;stroke-opacity:1" d="m 317.59766,559.84766 c -23.85139,0 -43.05274,19.20134 -43.05274,43.05273 v 22.74609 c 0,23.85139 19.20135,43.05274 43.05274,43.05274 h 189.44336 c 23.85138,0 43.05273,-19.20135 43.05273,-43.05274 v -22.74609 c 0,-23.85139 -19.20135,-43.05273 -43.05273,-43.05273 z M 472.25,575.61328 h 3.00781 v 12.13867 h 0.0742 c 1.44252,-2.3716 3.49516,-3.55664 6.16016,-3.55664 4.22974,0 6.3457,2.54879 6.3457,7.64649 v 11.57031 h -3.00781 v -10.81836 c 0,-3.91191 -1.45573,-5.86719 -4.36524,-5.86719 -1.46696,0 -2.70069,0.56817 -3.70312,1.70508 -1.00243,1.12466 -1.50391,2.57311 -1.50391,4.3457 v 10.63477 H 472.25 Z m -24.58984,0.34766 c 0.55012,0 1.01557,0.19135 1.39453,0.57031 0.39118,0.36674 0.58594,0.83023 0.58593,1.39258 0,0.53788 -0.19475,0.99601 -0.58593,1.375 -0.37896,0.37896 -0.84441,0.56836 -1.39453,0.56836 -0.53791,0 -0.99604,-0.18209 -1.375,-0.54883 -0.37896,-0.36674 -0.56836,-0.83219 -0.56836,-1.39453 0,-0.56235 0.1894,-1.02584 0.56836,-1.39258 0.37896,-0.37896 0.83709,-0.57031 1.375,-0.57031 z m -118.75196,1.15625 h 3.50196 L 338.29688,589 c 0.0731,0.14665 0.28805,0.68415 0.64257,1.61328 h 0.0547 c 0.12226,-0.41565 0.35498,-0.95315 0.69727,-1.61328 l 6.16015,-11.88281 h 3.26367 l -8.67382,16.57617 v 9.71875 h -3.08008 v -9.64453 z m 29.00977,7.07812 c 2.79946,0 4.98211,0.86225 6.54687,2.58594 1.577,1.72369 2.36524,4.11375 2.36524,7.16992 0,2.99505 -0.84959,5.39582 -2.54883,7.20508 -1.68701,1.79704 -3.95437,2.69727 -6.80273,2.69727 -2.77502,0 -4.99564,-0.87492 -6.65821,-2.62305 -1.65034,-1.76035 -2.47461,-4.08907 -2.47461,-6.98633 0,-3.15399 0.86225,-5.61803 2.58594,-7.39062 1.72369,-1.77258 4.05239,-2.65821 6.98633,-2.65821 z m 103.93555,0 c 1.6259,0 3.07967,0.28141 4.36328,0.84375 v 3.04297 c -1.38142,-0.90464 -2.97054,-1.35547 -4.76758,-1.35547 -0.56232,0 -1.06915,0.0666 -1.52149,0.20117 -0.4523,0.12221 -0.84377,0.29894 -1.17382,0.53125 -0.31786,0.23232 -0.5686,0.51373 -0.75196,0.84375 -0.17108,0.31784 -0.25586,0.67325 -0.25586,1.06446 0,0.48897 0.0848,0.89843 0.25586,1.22851 0.18344,0.33006 0.44684,0.62218 0.78907,0.87891 0.34229,0.25673 0.75712,0.48947 1.24609,0.69727 0.48899,0.20774 1.04645,0.43327 1.66992,0.67773 0.83127,0.31783 1.57617,0.64793 2.23633,0.99023 0.66013,0.33006 1.22297,0.70885 1.6875,1.13672 0.46455,0.41565 0.81801,0.8991 1.0625,1.44922 0.25673,0.5501 0.38672,1.20495 0.38672,1.96289 0,0.92909 -0.20935,1.73535 -0.625,2.41992 -0.40343,0.6846 -0.94629,1.25277 -1.63086,1.70508 -0.6846,0.45231 -1.47284,0.78972 -2.36524,1.00977 -0.89242,0.21997 -1.82867,0.32812 -2.80664,0.32812 -1.93151,0 -3.60536,-0.37161 -5.02343,-1.11718 v -3.22852 c 1.63812,1.21025 3.44002,1.81641 5.4082,1.81641 2.64055,0 3.96094,-0.88028 3.96094,-2.64063 0,-0.50122 -0.11534,-0.92333 -0.34766,-1.26562 -0.21997,-0.35452 -0.52486,-0.6666 -0.91601,-0.93555 -0.37897,-0.26893 -0.83177,-0.50702 -1.35743,-0.71485 -0.51343,-0.21983 -1.07089,-0.44536 -1.66992,-0.67773 -0.83127,-0.33005 -1.56353,-0.66016 -2.19922,-0.99023 -0.62347,-0.3423 -1.15025,-0.7211 -1.57812,-1.13672 -0.41562,-0.42787 -0.73308,-0.91132 -0.95313,-1.44922 -0.20787,-0.53788 -0.31054,-1.16741 -0.31054,-1.88867 0,-0.88018 0.20011,-1.65575 0.60351,-2.32813 0.40343,-0.68457 0.94288,-1.25472 1.61524,-1.70703 0.67237,-0.46455 1.4353,-0.81266 2.29101,-1.04492 0.86798,-0.23232 1.7609,-0.34766 2.67774,-0.34766 z m -59.8711,0.10938 c 0.78239,0 1.38123,0.0867 1.79688,0.25781 v 3.11719 c -0.52569,-0.40343 -1.28325,-0.60547 -2.27344,-0.60547 -1.2836,0 -2.36056,0.6042 -3.22852,1.81445 -0.85573,1.21026 -1.2832,2.86074 -1.2832,4.95117 v 9.57227 h -3.00781 v -18.77734 h 3.00781 v 3.86914 h 0.0742 c 0.42787,-1.32029 1.08076,-2.3466 1.96094,-3.08008 0.88017,-0.7457 1.86512,-1.11914 2.95312,-1.11914 z m -30.20117,0.33008 h 2.98828 v 10.74609 c 0,3.96082 1.51513,5.94141 4.54688,5.94141 1.46696,0 2.67197,-0.53751 3.61328,-1.61329 0.95352,-1.088 1.42969,-2.50577 1.42969,-4.2539 v -10.82031 h 3.00781 v 18.77734 h -3.00781 v -2.9707 h -0.0723 c -1.24692,2.27379 -3.17883,3.41211 -5.79492,3.41211 -4.47426,0 -6.71094,-2.66613 -6.71094,-7.9961 z m 44.04492,0 h 3.1543 l 3.88867,14.11914 c 0.12221,0.42786 0.20698,0.99068 0.25586,1.6875 h 0.14648 c 0.0365,-0.53791 0.14665,-1.11143 0.33008,-1.72266 l 4.32813,-14.08398 h 2.75 l 3.88672,14.15625 c 0.1222,0.4523 0.21416,1.01514 0.27539,1.6875 h 0.14648 c 0.0252,-0.47675 0.12982,-1.03959 0.3125,-1.6875 l 3.81445,-14.15625 h 2.97071 l -5.62891,18.77734 h -3.11914 l -3.86914,-13.44141 c -0.14665,-0.51343 -0.24409,-1.09427 -0.29297,-1.74218 h -0.0723 c -0.0368,0.44008 -0.16483,1.01021 -0.38477,1.70703 l -4.19922,13.47656 h -3.00781 z m 30.29297,0 h 3.00781 v 18.77734 h -3.00781 z m -88.42187,2.09179 c -1.93151,0 -3.45931,0.66021 -4.58399,1.98047 -1.12467,1.30807 -1.6875,3.11726 -1.6875,5.42774 0,2.22488 0.56818,3.97811 1.70508,5.26171 1.1369,1.28361 2.65935,1.92579 4.56641,1.92579 1.94373,0 3.4355,-0.62954 4.47461,-1.88868 1.05114,-1.25916 1.57617,-3.05035 1.57617,-5.37304 0,-2.34717 -0.52503,-4.15638 -1.57617,-5.42774 -1.03911,-1.27138 -2.53088,-1.90625 -4.47461,-1.90625 z m 166.90625,28.70703 h 2.77148 v 25.6211 h -2.77148 v -2.94141 h -0.0664 c -1.28444,2.23083 -3.26772,3.34766 -5.94922,3.34766 -2.17451,0 -3.91569,-0.77285 -5.22266,-2.31641 -1.29567,-1.55482 -1.94336,-3.66765 -1.94335,-6.33789 0,-2.86178 0.72192,-5.15311 2.16406,-6.87695 1.44216,-1.72385 3.36187,-2.58594 5.76172,-2.58594 2.37729,0 4.10782,0.93438 5.18945,2.80469 h 0.0664 z m -237.76368,0.32227 c 0.50701,0 0.93589,0.17416 1.28516,0.52344 0.36054,0.33801 0.54102,0.76493 0.54102,1.2832 0,0.49575 -0.18048,0.91832 -0.54102,1.26758 -0.34927,0.34928 -0.77815,0.52539 -1.28516,0.52539 -0.49574,0 -0.9183,-0.16982 -1.26757,-0.50781 -0.34928,-0.33802 -0.52344,-0.76689 -0.52344,-1.28516 0,-0.51827 0.17416,-0.94519 0.52344,-1.2832 0.34927,-0.34928 0.77183,-0.52344 1.26757,-0.52344 z m 13.03321,7.58789 c 1.49849,0 2.83846,0.25904 4.02148,0.77734 v 2.80469 c -1.27316,-0.83374 -2.7383,-1.25 -4.39453,-1.25 -0.51828,0 -0.98547,0.0616 -1.40234,0.18555 -0.41688,0.11263 -0.77783,0.27611 -1.08204,0.49023 -0.29292,0.21418 -0.5224,0.47325 -0.6914,0.77735 -0.15773,0.29293 -0.23828,0.61992 -0.23828,0.98047 0,0.45066 0.0806,0.82861 0.23828,1.13281 0.16899,0.3042 0.41108,0.57392 0.72656,0.81054 0.31547,0.2366 0.69777,0.45106 1.14844,0.64258 0.45067,0.1915 0.9625,0.39962 1.53711,0.625 0.76615,0.29294 1.45409,0.59665 2.0625,0.91211 0.60841,0.30423 1.12655,0.6545 1.55469,1.04883 0.42814,0.38307 0.75513,0.82697 0.98046,1.33398 0.2366,0.50702 0.35547,1.11004 0.35547,1.8086 0,0.85626 -0.19114,1.59951 -0.57422,2.23047 -0.3718,0.63093 -0.87492,1.15538 -1.50585,1.57226 -0.63095,0.41688 -1.35721,0.72688 -2.17969,0.92969 -0.82248,0.20283 -1.68459,0.30469 -2.58594,0.30469 -1.78017,0 -3.3239,-0.34398 -4.63086,-1.03125 v -2.97461 c 1.50976,1.11541 3.17236,1.67383 4.98633,1.67383 2.43364,0 3.65039,-0.81117 3.65039,-2.4336 0,-0.46193 -0.10624,-0.85052 -0.32031,-1.16601 -0.20281,-0.32673 -0.48517,-0.61542 -0.84571,-0.86328 -0.34927,-0.24794 -0.76552,-0.46674 -1.25,-0.65821 -0.47321,-0.20283 -0.98698,-0.41095 -1.53906,-0.625 -0.76615,-0.3042 -1.44147,-0.60986 -2.02734,-0.91406 -0.57461,-0.31549 -1.05879,-0.66382 -1.45313,-1.04687 -0.38307,-0.39434 -0.6761,-0.84019 -0.8789,-1.33594 -0.19155,-0.49575 -0.28711,-1.07549 -0.28711,-1.74024 0,-0.81121 0.18483,-1.52679 0.55664,-2.14648 0.3718,-0.63093 0.8686,-1.15538 1.48828,-1.57227 0.61967,-0.42814 1.32265,-0.74882 2.11133,-0.96289 0.79994,-0.21417 1.62373,-0.32031 2.46875,-0.32031 z m 27.6875,0 c 1.18302,0 2.21298,0.33133 3.09179,0.99609 0.87882,0.65346 1.48186,1.51558 1.8086,2.58594 1.28442,-2.38858 3.19978,-3.58203 5.74609,-3.58203 3.8082,0 5.71289,2.34859 5.71289,7.04687 v 10.66407 h -2.77148 v -9.9375 c 0,-1.91537 -0.29934,-3.29996 -0.89649,-4.15625 -0.58587,-0.85627 -1.57751,-1.28516 -2.97461,-1.28516 -1.18302,0 -2.19164,0.54145 -3.02539,1.62305 -0.82248,1.08162 -1.23437,2.37695 -1.23437,3.88672 v 9.86914 h -2.77149 V 630.7793 c 0,-3.40259 -1.31232,-5.10352 -3.9375,-5.10352 -1.21682,0 -2.21913,0.51183 -3.00781,1.53711 -0.78868,1.01402 -1.18359,2.33897 -1.18359,3.97266 v 9.86914 h -2.77149 v -17.30664 h 2.77149 v 2.73828 h 0.0684 c 1.22808,-2.09565 3.02022,-3.14258 5.375,-3.14258 z m 57.00976,0 c 1.52104,0 2.86297,0.2804 4.02344,0.84375 v 2.83984 c -1.28441,-0.90134 -2.65835,-1.35156 -4.12305,-1.35156 -1.76889,0 -3.2234,0.63701 -4.36132,1.91016 -1.12668,1.26188 -1.68946,2.92254 -1.68946,4.98437 0,2.02805 0.52882,3.62903 1.58789,4.80078 1.07036,1.17176 2.50155,1.75782 4.29297,1.75782 1.50977,0 2.93028,-0.50115 4.25977,-1.50391 v 2.63477 c -1.32949,0.79995 -2.90719,1.20117 -4.73243,1.20117 -2.46741,0 -4.4614,-0.80052 -5.98242,-2.40039 -1.50976,-1.61117 -2.26562,-3.69633 -2.26562,-6.25391 0,-2.85052 0.81748,-5.13748 2.45117,-6.86133 1.63371,-1.7351 3.81249,-2.60156 6.53906,-2.60156 z m 16.27735,0 c 2.5801,0 4.59299,0.79418 6.03515,2.38281 1.45341,1.58864 2.17969,3.79072 2.17969,6.60742 0,2.76039 -0.78352,4.97508 -2.34961,6.64258 -1.55482,1.65622 -3.64435,2.48438 -6.26953,2.48438 -2.55758,0 -4.60247,-0.80681 -6.13477,-2.41797 -1.52103,-1.62243 -2.28125,-3.76727 -2.28125,-6.4375 0,-2.90686 0.79418,-5.17881 2.38282,-6.8125 1.58863,-1.63371 3.73345,-2.44922 6.4375,-2.44922 z m 21.31445,0 c 1.18302,0 2.21493,0.33133 3.09375,0.99609 0.87882,0.65346 1.47989,1.51558 1.80664,2.58594 1.28441,-2.38858 3.19978,-3.58203 5.74609,-3.58203 3.80821,0 5.71289,2.34863 5.71289,7.04687 v 10.66407 H 435.75 v -9.9375 c 0,-1.91537 -0.29934,-3.29996 -0.89648,-4.15625 -0.58588,-0.85627 -1.57752,-1.28516 -2.97461,-1.28516 -1.18302,0 -2.18968,0.54145 -3.02344,1.62305 -0.82248,1.08162 -1.23438,2.37695 -1.23438,3.88672 v 9.86914 h -2.77148 V 630.7793 c 0,-3.40259 -1.31232,-5.10352 -3.9375,-5.10352 -1.21683,0 -2.2211,0.51183 -3.00977,1.53711 -0.78868,1.01402 -1.18164,2.33897 -1.18164,3.97266 v 9.86914 h -2.77148 v -17.30664 h 2.77148 v 2.73828 h 0.0664 c 1.22809,-2.09565 3.02023,-3.14258 5.375,-3.14258 z m 30.27148,0 c 1.18302,0 2.21298,0.33133 3.0918,0.99609 0.87882,0.65346 1.48187,1.51558 1.80859,2.58594 1.28444,-2.38858 3.19981,-3.58203 5.7461,-3.58203 3.8082,0 5.71289,2.34864 5.71289,7.04687 v 10.66407 h -2.77149 v -9.9375 c 0,-1.91537 -0.29934,-3.29996 -0.89648,-4.15625 -0.58588,-0.85627 -1.57752,-1.28516 -2.97461,-1.28516 -1.18302,0 -2.19163,0.54145 -3.02539,1.62305 -0.82248,1.08162 -1.23242,2.37695 -1.23242,3.88672 v 9.86914 h -2.77344 V 630.7793 c 0,-3.40259 -1.31232,-5.10352 -3.9375,-5.10352 -1.21681,0 -2.21913,0.51183 -3.00781,1.53711 -0.78869,1.01402 -1.1836,2.33897 -1.1836,3.97266 v 9.86914 h -2.77148 v -17.30664 h 2.77148 v 2.73828 h 0.0684 c 1.22807,-2.09565 3.02021,-3.14258 5.375,-3.14258 z m 28.34375,0 c 4.06735,0 6.10157,2.15113 6.10157,6.45508 v 11.25586 h -2.77344 v -2.70313 h -0.0664 c -1.20557,2.0731 -2.98071,3.10938 -5.32422,3.10938 -1.72381,0 -3.07643,-0.45654 -4.05664,-1.36914 -0.96897,-0.91263 -1.45312,-2.12502 -1.45312,-3.63477 0,-3.23359 1.90469,-5.11497 5.71289,-5.64453 l 5.1875,-0.72656 c 0,-2.94065 -1.18713,-4.41016 -3.56445,-4.41016 -2.08436,0 -3.96577,0.70929 -5.64454,2.12891 v -2.83985 c 1.7013,-1.08162 3.6613,-1.62109 5.88086,-1.62109 z m 20.29883,0 c 1.89284,0 3.34102,0.6137 4.34375,1.8418 1.00276,1.21683 1.50391,2.97936 1.50391,5.28906 v 10.58008 h -2.77149 v -9.86914 c 0,-3.673 -1.33996,-5.50977 -4.02148,-5.50977 -1.38583,0 -2.53661,0.52446 -3.44922,1.57227 -0.90137,1.03654 -1.35156,2.34886 -1.35156,3.9375 v 9.86914 h -2.77149 v -17.30664 h 2.77149 v 2.87304 h 0.0684 c 1.30696,-2.18577 3.19902,-3.27734 5.67773,-3.27734 z m -215.65625,0.4043 h 2.77149 v 17.30664 h -2.77149 z m 77.9707,0 -7.96093,20.07812 c -1.41963,3.58287 -3.41358,5.375 -5.98242,5.375 -0.72108,0 -1.32412,-0.0743 -1.8086,-0.2207 v -2.48438 c 0.59715,0.20284 1.14488,0.30469 1.64063,0.30469 1.39709,0 2.44403,-0.8325 3.14258,-2.5 l 1.38671,-3.2793 -6.75976,-17.27148 h 3.07422 l 4.68164,13.31641 c 0.0563,0.16907 0.17521,0.60861 0.35547,1.31836 h 0.10156 c 0.0563,-0.27039 0.16889,-0.69928 0.33789,-1.28516 L 360.51758,623.75 Z m 37.25586,1.92773 c -1.78018,0 -3.19001,0.60741 -4.22656,1.82422 -1.03655,1.20557 -1.55469,2.87447 -1.55469,5.00391 0,2.05057 0.52446,3.66659 1.57227,4.84961 1.04784,1.18301 2.45135,1.77539 4.20898,1.77539 1.79142,0 3.16537,-0.5817 4.12305,-1.74219 0.96897,-1.16049 1.45313,-2.81047 1.45313,-4.95117 0,-2.16323 -0.48416,-3.8302 -1.45313,-5.00196 -0.95768,-1.17175 -2.33163,-1.75781 -4.12305,-1.75781 z m 119.05664,0 c -1.68992,0 -3.01933,0.62002 -3.98828,1.85938 -0.96897,1.23935 -1.45312,2.95096 -1.45312,5.13672 0,1.99415 0.46087,3.57195 1.38476,4.73242 0.93516,1.14923 2.18587,1.72461 3.75196,1.72461 1.54356,0 2.79427,-0.55842 3.75195,-1.67383 0.96897,-1.11542 1.45313,-2.52329 1.45313,-4.22461 v -2.55274 c 0,-1.39709 -0.46088,-2.57988 -1.38477,-3.54882 -0.92389,-0.96895 -2.09601,-1.45313 -3.51563,-1.45313 z m -35.59765,6.625 -4.17383,0.57422 c -1.28443,0.18016 -2.25277,0.50083 -2.90625,0.96289 -0.65348,0.45067 -0.98047,1.25748 -0.98047,2.41797 0,0.84503 0.29935,1.53732 0.89649,2.07812 0.60842,0.52954 1.41328,0.79493 2.41601,0.79493 1.37457,0 2.50641,-0.47982 3.39649,-1.4375 0.90136,-0.96895 1.35156,-2.19202 1.35156,-3.66797 z" transform="scale(0.26458333)" sodipodi:nodetypes="sssssssssccccssccsscscccscscssscscccccccccccccscscscssssccscccscssccccscsssccsscccccccscccssccscscccccccssccsscsccccccsscccccccccccccccccccccccccccccscssscscsccccccscssscccscscssscssccscccscssccccscsssccsscccccccscccssccssccscscsccsscsccccccsssccscscsccscscsscscscssssccssccscscsccsscsccccccsssccssccscscsccsscsccccccssssccccscsccsccssscsccsscsccccccsscccccccsccsccccccccccscssscscsssscscsssscccscscsc"/>
      <path id="path5512-7-0-7" style="fill:#ffffff;fill-opacity:1;stroke:none;stroke-width:5.40855;stroke-miterlimit:4;stroke-dasharray:none;stroke-dashoffset:24.5872;stroke-opacity:1" inkscape:transform-center-x="-0.31735243" inkscape:transform-center-y="-1.3180081" d="m 62.069416,167.24106 12.909797,1.25664 0.07317,-8.11194 z" sodipodi:nodetypes="cccc"/>
      <g id="g5182-1-3" transform="matrix(0.15773485,0.02092899,-0.02092899,0.15773485,1179.6628,-659.97151)" style="fill:#ffffff;fill-opacity:1;stroke-width:14.0574">
        <path id="path3659-8-5-1" style="fill:#ffffff;fill-opacity:1;stroke:none;stroke-width:5.70785px;stroke-linecap:butt;stroke-linejoin:miter;stroke-opacity:1" d="m -6378.0334,6154.8211 67.0286,27.6624 c -5.1233,18.3994 -27.0149,27.6311 -42.6911,31.1334 -36.49,8.1526 -60.7138,26.8683 -5.2281,47.7762 -95.7837,-6.9293 -90.6781,-26.8949 -84.7257,-36.6433 8.3898,-13.7402 22.4458,-10.6491 22.4458,-19.2446 0,-8.0821 -7.4626,-13.1559 -19.7413,-21.1419 22.659,-10.6866 39.9131,-18.9438 62.9118,-29.5422 z" sodipodi:nodetypes="ccscsscc"/>
        <path id="path3661-6-3-4" style="color:#000000;font-style:normal;font-variant:normal;font-weight:normal;font-stretch:normal;font-size:medium;line-height:normal;font-family:sans-serif;font-variant-ligatures:normal;font-variant-position:normal;font-variant-caps:normal;font-variant-numeric:normal;font-variant-alternates:normal;font-variant-east-asian:normal;font-feature-settings:normal;font-variation-settings:normal;text-indent:0;text-align:start;text-decoration:none;text-decoration-line:none;text-decoration-style:solid;text-decoration-color:#000000;letter-spacing:normal;word-spacing:normal;text-transform:none;writing-mode:lr-tb;direction:ltr;text-orientation:mixed;dominant-baseline:auto;baseline-shift:baseline;text-anchor:start;white-space:normal;shape-padding:0;shape-margin:0;inline-size:0;clip-rule:nonzero;display:inline;overflow:visible;visibility:visible;isolation:auto;mix-blend-mode:normal;color-interpolation:sRGB;color-interpolation-filters:linearRGB;solid-color:#000000;solid-opacity:1;vector-effect:none;fill:#ffffff;fill-opacity:1;fill-rule:nonzero;stroke:none;stroke-width:184.71;stroke-linecap:butt;stroke-linejoin:miter;stroke-miterlimit:4;stroke-dasharray:none;stroke-dashoffset:0;stroke-opacity:1;color-rendering:auto;image-rendering:auto;shape-rendering:auto;text-rendering:auto;enable-background:accumulate;stop-color:#000000" d="m -6299.0878,6114.0664 c 46.7013,0 38.5604,72.3946 0.4759,57.5718 l -63.7217,-24.8013 c 1.9266,-0.084 3.9133,-0.508 6.0099,-1.4003 4.3207,-1.8388 7.6958,-4.0864 10.056,-7.2592 2.3602,-3.1728 3.2502,-7.4372 2.5467,-10.8958 -1.3682,-6.7265 -5.8376,-10.2009 -10.7328,-12.0322 0.3436,-0.3879 0.7,-0.7837 1.0608,-1.183 z m -102.3361,0 c 2.0586,1.7528 3.9862,3.5494 5.709,5.3091 4.6457,4.7452 7.7492,9.83 8.0166,10.6841 1.2278,3.9181 3.4848,6.9574 6.1769,9.3091 l -65.0093,-25.3023 z"/>
        <path style="color:#000000;font-style:normal;font-variant:normal;font-weight:normal;font-stretch:normal;font-size:medium;line-height:normal;font-family:sans-serif;font-variant-ligatures:normal;font-variant-position:normal;font-variant-caps:normal;font-variant-numeric:normal;font-variant-alternates:normal;font-variant-east-asian:normal;font-feature-settings:normal;font-variation-settings:normal;text-indent:0;text-align:start;text-decoration:none;text-decoration-line:none;text-decoration-style:solid;text-decoration-color:#000000;letter-spacing:normal;word-spacing:normal;text-transform:none;writing-mode:lr-tb;direction:ltr;text-orientation:mixed;dominant-baseline:auto;baseline-shift:baseline;text-anchor:start;white-space:normal;shape-padding:0;shape-margin:0;inline-size:0;clip-rule:nonzero;display:inline;overflow:visible;visibility:visible;isolation:auto;mix-blend-mode:normal;color-interpolation:sRGB;color-interpolation-filters:linearRGB;solid-color:#000000;solid-opacity:1;vector-effect:none;fill:#ffffff;fill-opacity:1;fill-rule:nonzero;stroke:none;stroke-width:184.71;stroke-linecap:butt;stroke-linejoin:miter;stroke-miterlimit:4;stroke-dasharray:none;stroke-dashoffset:0;stroke-opacity:1;color-rendering:auto;image-rendering:auto;shape-rendering:auto;text-rendering:auto;enable-background:accumulate;stop-color:#000000" d="m -6396.1222,6147.8367 -68.7406,-28.3049 c -15.4372,-6.3565 -24.7546,6.9339 -25.9264,20.9314 -2.1519,25.7068 20.9033,40.373 40.4357,31.6349 z" id="path3663-4-6-91"/>
        <path style="fill:#ffffff;fill-opacity:1;stroke:none;stroke-width:5.60162px;stroke-linecap:butt;stroke-linejoin:miter;stroke-opacity:1" d="m -6435.4935,5980.6452 c -9.9577,9.0181 -22.7959,10.3671 -23.2513,1.3879 -0.2951,-5.8174 -2.1831,-6.9728 -5.0939,-2.1355 -11.796,19.6033 20.0875,34.4096 36.7928,20.5519 10.3927,-8.6212 22.218,-5.6955 26.8766,8.0403 l 9.0821,-5.5695 c 1.1781,-27.7606 -27.9096,-37.2151 -44.4063,-22.2751 z" id="path3665-8-3-2" sodipodi:nodetypes="ssssccs"/>
        <rect style="fill:#ffffff;fill-opacity:1;stroke:none;stroke-width:150.945;stroke-linecap:round;stroke-linejoin:round;stroke-miterlimit:4;stroke-dasharray:none;stroke-opacity:1" id="rect3667-7-1-1" width="19.600306" height="10.098084" x="7394.2964" y="3469.7854" rx="3.4826987" ry="5.0490422" transform="matrix(-0.93753194,0.34789921,0.15713846,0.98757658,0,0)"/>
        <path style="fill:#ffffff;fill-opacity:1;stroke:none;stroke-width:6.3624px;stroke-linecap:butt;stroke-linejoin:miter;stroke-opacity:1" d="m -6406.8689,6096.7138 c 19.5875,8.3926 34.1564,12.9803 53.7066,-0.7938 -6.1603,10.4215 -19.8952,21.3134 -12.6374,30.2351 6.1365,7.5433 12.1082,-0.1829 7.6068,-5.5413 18.6435,20.6117 -19.6436,21.7525 -23.187,5.6847 -2.5455,-11.5426 -15.4112,-18.9568 -25.489,-29.5847 z" id="path3669-1-1-1" sodipodi:nodetypes="ccscsc"/>
        <ellipse style="fill:#ffffff;fill-opacity:1;stroke:none;stroke-width:93.5478;stroke-linecap:round;stroke-linejoin:round;stroke-miterlimit:4;stroke-dasharray:none;stroke-opacity:1" id="ellipse3671-0-1-1" cx="-6380.5151" cy="6058.2129" rx="41.240452" ry="50.179531"/>
      </g>
      <text xml:space="preserve" style="font-style:italic;font-size:12.8825px;line-height:1.25;font-family:'TeX Gyre Adventor';-inkscape-font-specification:'TeX Gyre Adventor Italic';letter-spacing:0.170693px;fill:#ffffff;fill-opacity:1;stroke-width:0.591811" x="58.999603" y="192.56882" id="text5511-4-75"><tspan sodipodi:role="line" id="tspan5509-6-1" x="58.999603" y="192.56882" style="font-style:normal;font-variant:normal;font-weight:normal;font-stretch:normal;font-size:12.8825px;font-family:'Segoe UI';-inkscape-font-specification:'Segoe UI, Normal';font-variant-ligatures:normal;font-variant-caps:normal;font-variant-numeric:normal;font-variant-east-asian:normal;fill:#ffffff;fill-opacity:1;stroke-width:0.591811">ProvisionGenie</tspan></text>
    </g>
  </g>
</svg>