<svg xmlns:dc="http://purl.org/dc/elements/1.1/" xmlns:cc="http://creativecommons.org/ns#" xmlns:rdf="http://www.w3.org/1999/02/22-rdf-syntax-ns#" xmlns:svg="http://www.w3.org/2000/svg" xmlns="http://www.w3.org/2000/svg" xmlns:sodipodi="http://sodipodi.sourceforge.net/DTD/sodipodi-0.dtd" xmlns:inkscape="http://www.inkscape.org/namespaces/inkscape" version="1.1" id="svg8" inkscape:version="1.0.1 (3bc2e813f5, 2020-09-07)" sodipodi:docname="GenieHeaderTransparent.svg" viewBox="92.23 95.81 52.92 21.17">
  <defs id="defs2"/>
  <sodipodi:namedview id="base" pagecolor="#ffffff" bordercolor="#666666" borderopacity="1.0" inkscape:pageopacity="0.0" inkscape:pageshadow="2" inkscape:zoom="0.7" inkscape:cx="606.50421" inkscape:cy="792.40182" inkscape:document-units="mm" inkscape:current-layer="layer1" inkscape:document-rotation="0" showgrid="false" inkscape:window-width="3072" inkscape:window-height="1634" inkscape:window-x="3373" inkscape:window-y="-11" inkscape:window-maximized="1"/>
  <metadata id="metadata5">
    <rdf:RDF>
      <cc:Work rdf:about="">
        <dc:format>image/svg+xml</dc:format>
        <dc:type rdf:resource="http://purl.org/dc/dcmitype/StillImage"/>
        <dc:title/>
      </cc:Work>
    </rdf:RDF>
  </metadata>
  <g inkscape:label="Ebene 1" inkscape:groupmode="layer" id="layer1">
    <g id="g2494" transform="matrix(0.03371891,0,0,0.03075163,113.18368,101.32467)" style="stroke-width:31.0548">
      <path id="rect5745" style="fill:#ffffff;fill-opacity:1;stroke:none;stroke-width:938.98;stroke-linecap:round;stroke-linejoin:round;stroke-miterlimit:4;stroke-dasharray:none;stroke-dashoffset:24.5872;stroke-opacity:1" d="M -2348.5527,-677.88672 V 1923.6016 H 3582.8379 V -677.88672 Z m 2534.74801,89.8457 H 3501.2344 V 1092.5469 h -0.074 v 725.5703 h -5775.303 V 927.10742 H 186.19531 Z m -1273.30271,310.40821 c 80.7482,-0.18063 217.98642,79.25979 218.25779,200.515622 -76.02436,25.297554 -138.60619,43.905766 -220.50979,69.0664068 -81.1009,-23.7135458 -140.3523,-43.4310118 -215.5722,-68.0898438 -0.2549,-113.922605 106.4696,-201.242335 217.2949,-201.490235 z m -733.8809,158.71289 a 55.544774,55.544774 0 0 1 28.9219,8.22461 c 102.4779,63.004269 196.1937,125.141116 308.0195,163.916013 19.016,-20.230057 38.8326,-38.225523 59.8281,-52.98242175 l 343.5997,91.25976575 v 0.597656 l 0.7734,-0.002 0.8437,-0.002 V 91.494047 L -786.50982,12.429594 C -617.35828,115.39141 -436.20866,157.01553 -206.01953,-52.6875 l 159.470702,-0.355469 C -177.32973,143.51488 -312.6295,200.9365 -440.14453,238.15234 c -119.89599,35.00223 -199.69628,74.46975 -279.2207,149.38282 -81.98382,77.21121 -151.68222,123.83244 -232.58985,168.9707 l -3.07422,0.008 a 168.45241,289.58608 89.871837 0 1 136.41992,142.54492 168.45241,289.58608 89.871837 0 1 -0.58007,10.75196 l -577.97855,1.29297 a 168.45241,289.58608 89.871837 0 1 -0.6269,-10.74805 168.45241,289.58608 89.871837 0 1 135.7871,-143.1543 l -8.9395,0.0195 -87.6152,-67.4414 c -117.9332,-46.62331 -236.3268,-96.5928 -332.4629,-172.53516 -107.9253,-85.25541 -185.231,-209.42983 -185.6797,-380.49414 a 55.544774,55.544774 0 0 1 55.0899,-55.66797 55.544774,55.544774 0 0 1 0.6269,-0.002 z m 70.1582,163.404295 c 21.3063,78.344655 65.5648,135.744815 128.6563,185.583985 36.5966,28.90957 80.0351,54.43561 127.5644,78.09766 -23.4509,-47.74384 -38.5244,-98.18899 -34.4941,-154.79102 -81.6952,-29.14 -153.8359,-68.161769 -221.7266,-108.890625 z" transform="scale(0.26458333)"/>
      <text xml:space="preserve" style="font-style:italic;font-size:188.318px;line-height:1.25;font-family:'TeX Gyre Adventor';-inkscape-font-specification:'TeX Gyre Adventor Italic';letter-spacing:2.49522px;fill:#ffffff;fill-opacity:1;stroke-width:8.21654" x="-477.69849" y="438.44086" id="text5769"><tspan sodipodi:role="line" id="tspan5767" x="-477.69849" y="438.44086" style="font-style:normal;font-variant:normal;font-weight:normal;font-stretch:normal;font-size:188.318px;font-family:'Segoe UI';-inkscape-font-specification:'Segoe UI, Normal';font-variant-ligatures:normal;font-variant-caps:normal;font-variant-numeric:normal;font-variant-east-asian:normal;fill:#ffffff;fill-opacity:1;stroke-width:8.21654">ProvisionGenie</tspan></text>
      <g id="g5784" transform="matrix(-0.67196399,0,0,0.67196399,-3435.5215,-2740.2867)" style="fill:#ffffff;fill-opacity:1;stroke-width:46.2153">
        <path id="path5771" style="color:#000000;font-style:normal;font-variant:normal;font-weight:normal;font-stretch:normal;font-size:medium;line-height:normal;font-family:sans-serif;font-variant-ligatures:normal;font-variant-position:normal;font-variant-caps:normal;font-variant-numeric:normal;font-variant-alternates:normal;font-variant-east-asian:normal;font-feature-settings:normal;font-variation-settings:normal;text-indent:0;text-align:start;text-decoration:none;text-decoration-line:none;text-decoration-style:solid;text-decoration-color:#000000;letter-spacing:normal;word-spacing:normal;text-transform:none;writing-mode:lr-tb;direction:ltr;text-orientation:mixed;dominant-baseline:auto;baseline-shift:baseline;text-anchor:start;white-space:normal;shape-padding:0;shape-margin:0;inline-size:0;clip-rule:nonzero;display:inline;overflow:visible;visibility:visible;isolation:auto;mix-blend-mode:normal;color-interpolation:sRGB;color-interpolation-filters:linearRGB;solid-color:#000000;solid-opacity:1;vector-effect:none;fill:#ffffff;fill-opacity:1;fill-rule:nonzero;stroke:none;stroke-width:705.091;stroke-linecap:butt;stroke-linejoin:miter;stroke-miterlimit:4;stroke-dasharray:none;stroke-dashoffset:0;stroke-opacity:1;color-rendering:auto;image-rendering:auto;shape-rendering:auto;text-rendering:auto;enable-background:accumulate;stop-color:#000000" d="m -5636.2855,4265.4006 c 118.2873,0 97.6628,184.8948 1.1029,147.0374 l -161.4111,-63.3403 c 4.8804,-0.2757 9.8986,-1.2959 15.2202,-3.5789 10.9464,-4.6956 19.494,-10.4363 25.4772,-18.5399 5.9558,-8.1009 8.2167,-18.9922 6.4521,-27.8265 -3.4742,-17.1806 -14.8066,-26.0535 -27.1868,-30.7299 0.8272,-0.9926 1.6544,-2.0128 2.7573,-3.0219 z m -259.2118,0 c 5.2113,4.4778 10.0917,9.0659 14.4482,13.5602 11.7735,12.1183 19.6318,25.1051 20.3211,27.2861 3.0882,10.0061 8.8233,17.7706 15.6338,23.776 l -164.6647,-64.6223 z"/>
        <path style="color:#000000;font-style:normal;font-variant:normal;font-weight:normal;font-stretch:normal;font-size:medium;line-height:normal;font-family:sans-serif;font-variant-ligatures:normal;font-variant-position:normal;font-variant-caps:normal;font-variant-numeric:normal;font-variant-alternates:normal;font-variant-east-asian:normal;font-feature-settings:normal;font-variation-settings:normal;text-indent:0;text-align:start;text-decoration:none;text-decoration-line:none;text-decoration-style:solid;text-decoration-color:#000000;letter-spacing:normal;word-spacing:normal;text-transform:none;writing-mode:lr-tb;direction:ltr;text-orientation:mixed;dominant-baseline:auto;baseline-shift:baseline;text-anchor:start;white-space:normal;shape-padding:0;shape-margin:0;inline-size:0;clip-rule:nonzero;display:inline;overflow:visible;visibility:visible;isolation:auto;mix-blend-mode:normal;color-interpolation:sRGB;color-interpolation-filters:linearRGB;solid-color:#000000;solid-opacity:1;vector-effect:none;fill:#ffffff;fill-opacity:1;fill-rule:nonzero;stroke:none;stroke-width:705.091;stroke-linecap:butt;stroke-linejoin:miter;stroke-miterlimit:4;stroke-dasharray:none;stroke-dashoffset:0;stroke-opacity:1;color-rendering:auto;image-rendering:auto;shape-rendering:auto;text-rendering:auto;enable-background:accumulate;stop-color:#000000" d="m -5882.0693,4351.651 -174.1222,-72.2903 c -39.1258,-16.2349 -62.7281,17.7072 -65.6784,53.4581 -5.4594,65.6535 52.9398,103.1112 102.4329,80.7938 z" id="path5773"/>
        <path style="fill:#ffffff;fill-opacity:1;stroke:none;stroke-width:21.3829px;stroke-linecap:butt;stroke-linejoin:miter;stroke-opacity:1" d="m -5981.8001,3924.645 c -25.2291,23.0316 -57.765,26.4782 -58.8955,3.5459 -0.8272,-14.859 -5.5421,-17.8093 -12.904,-5.4539 -29.8889,50.0639 50.8718,87.88 93.196,52.4875 26.3044,-22.0168 56.276,-14.5446 68.0772,20.5363 l 22.9957,-14.2248 c 2.9779,-70.9007 -70.6966,-95.0462 -112.4694,-56.891 z" id="path5775" sodipodi:nodetypes="ssssccs"/>
        <rect style="fill:#ffffff;fill-opacity:1;stroke:none;stroke-width:576.428;stroke-linecap:round;stroke-linejoin:round;stroke-miterlimit:4;stroke-dasharray:none;stroke-opacity:1" id="rect5777" width="49.698101" height="25.78516" x="6539.1748" y="1701.2103" rx="8.8306541" ry="12.89258" transform="matrix(-0.93659084,0.35042489,0.15588068,0.98777589,0,0)"/>
        <path style="fill:#ffffff;fill-opacity:1;stroke:none;stroke-width:24.287px;stroke-linecap:butt;stroke-linejoin:miter;stroke-opacity:1" d="m -5909.3112,4221.0828 c 49.631,21.4351 86.5234,33.1508 136.0441,-2.0128 -15.6062,26.616 -50.3755,54.4342 -32.012,77.2203 15.551,19.2652 30.6885,-0.4687 19.2734,-14.1531 47.2321,52.642 -49.7689,55.5564 -58.7301,14.5171 -6.452,-29.4781 -39.043,-48.4151 -64.5754,-75.5577 z" id="path5780" sodipodi:nodetypes="ccscsc"/>
        <ellipse style="fill:#ffffff;fill-opacity:1;stroke:none;stroke-width:357.102;stroke-linecap:round;stroke-linejoin:round;stroke-miterlimit:4;stroke-dasharray:none;stroke-opacity:1" id="ellipse5782" cx="-5842.5366" cy="4122.751" rx="104.46342" ry="128.15782"/>
      </g>
    </g>
  </g>
</svg>