<svg width="210" height="260" xmlns="http://www.w3.org/2000/svg" xmlns:undefined="http://www.inkscape.org/namespaces/inkscape" version="1.1">

 <metadata id="metadata5">image/svg+xml</metadata>
 <g>
  <title>Layer 1</title>
  <g id="layer1"  >
   <g stroke-width="1.50886" transform="matrix(0.662754 0 0 0.662754 8286.58 -612.028)" id="g5151">
    <path stroke-width="0.71136px" fill="#ffffff"  d="m-12345.67588,1159.86788l77.828,32.1193c-5.949,21.3639 -31.367,32.083 -49.569,36.1496c-42.369,9.466 -70.496,31.1972 -6.071,55.4736c-111.216,-8.0457 -105.288,-31.228 -98.376,-42.5471c9.741,-15.954 26.062,-12.3648 26.062,-22.3453c0,-9.3842 -8.665,-15.2754 -22.922,-24.5481c26.31,-12.4084 46.344,-21.996 73.048,-34.302z" id="path5006"/>
    <path stroke-dashoffset="0" stroke-miterlimit="4" stroke-width="23.0203" fill-rule="nonzero" fill="#ffffff" clip-rule="nonzero" d="m-12254.01088,1112.54698c54.226,0 44.773,84.0586 0.553,66.8476l-73.989,-28.7972c2.237,-0.097 4.544,-0.5898 6.979,-1.6259c5.016,-2.1351 8.935,-4.7449 11.676,-8.4289c2.74,-3.6839 3.774,-8.6353 2.957,-12.6513c-1.589,-7.8102 -6.778,-11.8444 -12.462,-13.9707c0.399,-0.4505 0.812,-0.91 1.231,-1.3736l63.055,0zm-118.824,0c2.39,2.0352 4.628,4.1213 6.629,6.1645c5.394,5.5097 8.997,11.4138 9.308,12.4055c1.426,4.5493 4.046,8.0783 7.172,10.8089l-75.483,-29.3789l52.374,0z" id="path5008"/>
    <path stroke-dashoffset="0" stroke-miterlimit="4" stroke-width="23.0203" fill-rule="nonzero" fill="#ffffff" clip-rule="nonzero" id="path5010" d="m-12366.67888,1151.75818l-79.816,-32.8653c-17.924,-7.3806 -28.743,8.0512 -30.104,24.3039c-2.498,29.8486 24.272,46.8778 46.951,36.7317l62.969,-28.1703z"/>
    <path stroke-width="0.69812px" fill="#ffffff"  id="path5012" d="m-12412.39388,957.62944c-11.562,10.47106 -26.469,12.03733 -26.997,1.61152c-0.343,-6.7547 -2.535,-8.09626 -5.915,-2.47961c-13.696,22.76169 23.324,39.95353 42.721,23.86313c12.067,-10.01016 25.797,-6.61315 31.207,9.3357l10.545,-6.4667c1.368,-32.23332 -32.406,-43.21112 -51.561,-25.86404z"/>
    <rect stroke-miterlimit="4" stroke-linejoin="round" stroke-linecap="round" stroke-width="18.8121" fill="#ffffff" transform="matrix(-0.937532 0.347899 0.157138 0.987577 0 0)" ry="5.86253" rx="4.04382" y="-3447.83389" x="12601.67897" height="11.72505" width="22.75824" id="rect5014"/>
    <path stroke-width="0.79293px" fill="#ffffff"  id="path5016" d="m-12379.15688,1092.39858c22.743,9.7448 39.659,15.0716 62.359,-0.9217c-7.153,12.1006 -23.1,24.7474 -14.673,35.1065c7.125,8.7586 14.059,-0.2124 8.832,-6.4341c21.647,23.9325 -22.808,25.2572 -26.923,6.6006c-2.955,-13.4023 -17.894,-22.011 -29.595,-34.3513z"/>
    <ellipse stroke-miterlimit="4" stroke-linejoin="round" stroke-linecap="round" stroke-width="11.6588" fill="#ffffff" ry="58.26428" rx="47.88497" cy="1047.69428" cx="-12348.55788" id="ellipse5018"/>
   </g>
  </g>
 </g>
</svg>